<svg xmlns="http://www.w3.org/2000/svg" xmlns:xlink="http://www.w3.org/1999/xlink" width="1024" height="1024" viewBox="0 0 1024 1024" fill="none">
<path d="M440.72 340.71C445.34 337.56 449.75 334.01 454.88 331.7C450.09 337.71 443.3 341.53 437.65 346.61C432.75 351.05 427.72 355.36 423.04 360.03C411.74 372.21 401.37 385.23 391.78 398.8C385.41 408.23 380.79 418.65 375.72 428.8C367.63 447.22 362.5 466.96 360.81 487.01C359.62 498.77 358.93 510.7 360.46 522.46C362.01 551.08 370.98 579.31 386.35 603.51C390.69 610.98 395.44 618.3 401.49 624.51C404.46 627.53 407.23 630.76 409.6 634.28C401.21 628.16 394.04 620.6 386.78 613.22C376.62 601.91 367.82 589.2 361.92 575.15C357.22 564.87 353.31 554.15 350.89 543.1C350.09 536.04 347.55 529.23 347.94 522.05C346.42 513.43 347.37 504.7 346.93 496.01C346.73 487.54 348.37 479.16 349.83 470.85C351.89 458.9 355.83 447.39 359.97 436.02C368.15 416.24 379.84 397.99 393.92 381.9C407.09 365.67 423.54 352.46 440.72 340.71Z"   fill="#FEFFF8" >
</path>
<path d="M614.29 454.26C619.61 454.71 625.68 455.26 629.47 459.52C634.41 464.68 633.67 473.72 628.45 478.4C623.21 483.28 616.33 485.67 610.18 489.1C603.25 493.07 595.95 496.53 589.85 501.77C578.84 508.8 568.32 516.85 559.97 526.99C550.33 538.64 542.18 551.62 536.88 565.83C532.93 574.33 530.99 583.52 528.52 592.5C527.45 598.63 525.57 604.72 526.01 611.01C526.43 615.71 525.27 620.33 524.9 624.99C524.63 639.25 525.18 653.55 524.68 667.8C519.81 668.46 514.89 668.02 510 668.1C505.1 668 500.17 668.48 495.3 667.78C494.73 653.2 495.26 638.58 495.04 623.99C495.08 617.34 494.73 610.69 494.96 604.04C497.1 591.72 498.58 579.23 502.28 567.23C507.34 549.14 516.02 532.19 526.85 516.89C533.68 507.83 540.77 498.81 549.65 491.64C558.11 483.49 567.93 476.92 578.14 471.16C589.68 464.47 602.46 460.35 614.29 454.26Z"   fill="#FEFFF8" >
</path>
<path d="M538.97 698.94C553.92 697.1 568.83 694.31 583.04 689.17C583.04 701.38 583.44 713.63 582.83 725.82C577.58 726.48 572.27 725.97 567 726.07C527.99 726.15 488.98 726.03 449.97 726.12C448.71 726.07 447.47 725.94 446.24 725.74C445.55 720.52 446.05 715.25 445.92 710.01C446.03 703.37 445.71 696.72 446.22 690.1C451.63 690.62 456.68 692.9 461.97 694.01C472.45 696.11 482.87 698.71 493.57 699.46C501.99 700.8 510.53 699.56 519 700.02C525.7 700.51 532.27 698.6 538.97 698.94Z"   fill="#FEFFF8" >
</path>
<path d="M446.39 759.34C447.57 759.1 448.78 758.98 450 758.97C492.33 759.04 534.68 758.99 577.02 759.02C580.96 758.97 585.08 760.25 587.74 763.29C590.48 766.14 590.11 770.43 589.97 774.07C589.91 777.92 587.15 781.08 584.15 783.18C580.27 785.78 575.37 784.74 570.99 784.89C532.33 784.87 493.67 784.85 455.02 784.9C451.18 784.78 446.93 785.6 443.52 783.4C438.35 780.17 435.75 773.29 437.35 767.45C438.94 763.63 442.29 760.3 446.39 759.34Z"   fill="#FEFFF8" >
</path>
<path d="M450.12 819.27C455.05 818.66 460.04 818.99 465 818.93C501.34 818.85 537.68 818.98 574.03 818.86C575.42 818.9 576.99 818.8 578.09 819.86C574.96 835.9 563.89 849.73 549.98 857.95C543.67 861.35 537.2 864.93 530 865.96C524.03 866.8 518.13 868.84 512.04 868.02C506.26 867.33 500.45 866.58 494.78 865.24C477.41 860.44 461.74 848.71 453.51 832.51C451.58 828.38 449.71 823.91 450.12 819.27Z"   fill="#FEFFF8" >
</path>
<path d="M496.91 139.84C506.86 138.28 516.95 139.51 526.97 138.9C531.68 138.46 536.26 139.89 540.96 139.93C553.62 140.29 566.05 142.84 578.56 144.51C619.04 151.26 658.18 165.22 694.2 184.81C732.59 205.11 767.91 231.69 796.78 264.21C815.94 284.97 832.25 308.27 846.29 332.76C854.6 348.52 862.43 364.56 868.82 381.2C875.52 400.25 881.44 419.62 885.62 439.39C887.48 450.26 888.74 456.2 890.92 472.05C893.1 487.9 893.1 492 893.1 497C893.1 502 893.1 507 893.1 515C893.1 523 892.98 527.5 891.99 538C891 548.5 891 547 890.08 558.03C889.16 569.06 886.87 581.18 884.65 592.64C880.97 608.99 876.6 625.19 870.86 640.94C866.87 653.86 860.93 666.04 855.34 678.32C844.46 699.98 831.78 720.77 816.91 739.94C802.73 758.85 786.28 775.91 769.23 792.23C758.58 801.67 747.85 811.05 736.17 819.21C727.9 824.57 720.24 830.84 711.6 835.63C680.78 854.43 647.35 868.86 612.58 878.56C610.01 879.14 606.67 879.46 604.92 877.03C605.88 871.38 606.75 865.57 609.52 860.47C612.56 854.84 616.12 849.23 621.31 845.34C628.17 840.17 636.55 837.84 644.31 834.43C655.53 829.35 666.99 824.75 677.83 818.87C701.29 805.78 723.86 790.89 743.88 772.89C751.89 765.22 760.72 758.36 767.77 749.71C776.86 740.08 785.03 729.64 793.35 719.34C807.12 700.48 819.75 680.64 829.4 659.34C836.9 643.94 842.88 627.83 847.49 611.34C856.34 582.41 860.4 552.18 861.31 522C861.05 510.63 861.81 499.23 860.55 487.9C859.61 470.55 856.6 453.39 852.61 436.5C843.88 401.7 831.08 367.63 811.96 337.15C798.13 314.33 781.61 293.12 762.45 274.55C737.82 249.05 708.53 228.37 677.44 211.5C638.94 190.77 596.41 177.69 552.98 172.78C544.99 171.95 537.04 170.5 528.97 170.69C513.69 170.9 498.32 169.92 483.12 171.99C436.59 176.79 390.62 189.75 349.64 212.56C323.98 226.14 300.21 243.18 278.95 262.93C271.22 269.53 263.89 276.59 257.4 284.41C242.39 300.08 229.49 317.64 217.8 335.88C210.21 348.92 202.27 361.86 196.76 375.96C182.62 407.97 173.57 442.24 169.8 477.02C167.42 497.25 166.86 517.72 168.84 538.01C170.24 559.73 173.68 581.34 179.51 602.32C183.88 619.89 189.89 637.05 197.43 653.51C203.39 667.63 210.8 681.09 218.8 694.15C233.18 716.83 249.63 738.33 268.99 757C275.79 763.54 282.03 770.68 289.45 776.55C310.94 795.23 335.08 810.75 360.49 823.55C368.68 826.92 376.31 831.51 384.68 834.47C390.57 836.77 396.44 839.17 402.11 842.01C414.57 848.84 422.28 862.77 423.07 876.77L423.09 877.69C419.39 880.39 414.46 878.53 410.44 877.57C400.49 874.25 390.4 871.26 380.68 867.28C347.53 853.65 315.71 836.46 286.95 815.01C276.07 806.67 265.27 798.13 255.68 788.31C249.54 782.78 244.15 776.52 238.2 770.81C226.28 758.26 215.5 744.66 205.36 730.65C194.31 714.39 183.54 697.85 175.02 680.09C165.3 661.35 157.96 641.48 151.7 621.35C143.72 594.55 138.68 566.86 136.93 538.96C137.15 534.25 135.62 529.68 135.76 524.99C135.91 516.66 135.87 508.33 135.77 500C137.67 482.68 137.78 465.05 142.07 448.04C147.31 416.7 157.29 386.27 170.34 357.34C179.95 337.6 190.56 318.27 203.54 300.51C213.59 286.13 224.73 272.52 236.69 259.69C247.35 249.37 257.21 238.13 269.04 229.09C289.13 211.81 311.51 197.33 334.83 184.8C341.97 180.72 349.61 177.64 357 174.04C388.06 159.43 421.28 149.49 455.16 144.15C468.92 141.53 482.93 140.3 496.91 139.84Z"   fill="#013733" >
</path>
<path d="M497.96 199.02C510.29 197.81 522.71 198.08 535.03 199.26C554.17 200.59 573.02 204.3 591.72 208.46C610.69 213.43 629.41 219.64 647.18 227.98C664.11 236.18 681.09 244.58 696.35 255.68C710.85 265.17 724.14 276.39 736.66 288.34C742.68 292.98 747.04 299.28 752.46 304.55C764.23 317.31 774.57 331.31 784.26 345.69C805.37 377.52 819.78 413.51 828.12 450.71C832.15 470.54 835.34 490.71 834.73 511C834.85 519.67 834.89 528.34 833.95 536.98C833.55 549.18 830.97 561.15 828.99 573.17C823.57 602.98 813.43 631.83 799.72 658.82C791.2 674.22 782.21 689.45 771.28 703.3C763.28 714.44 754.4 724.99 744.49 734.49C736.54 742.21 729.16 750.56 720.39 757.38C709.59 766.74 697.9 775 686.08 783C678.99 787.31 671.77 791.4 664.6 795.57C658.19 799.03 651.82 802.92 644.64 804.54C638.99 805.78 633.74 801.78 630.71 797.37C628.03 793.41 628.23 788.42 628.74 783.89C631.11 779.1 634.74 774.93 639.67 772.67C665.3 760.43 688.96 744.1 709.69 724.69C721.4 713.38 733.15 702 742.86 688.86C762.77 663.65 778.46 635.07 788.57 604.56C793.46 591.12 796.14 577.04 799.15 563.1C801.57 552.38 801.41 541.32 802.52 530.43C803.33 522.64 802.59 514.81 802.91 507C803.43 497.83 802.09 488.7 801.43 479.58C799.67 470.41 798.48 461.1 795.84 452.12C793.88 445.29 792.84 438.21 790.57 431.46C777.19 390.22 754.75 351.68 724.29 320.71C691.79 286.75 651.11 260.63 606.64 245.37C580.99 237.37 554.44 232 527.58 230.47C514.64 229.02 501.62 230.11 488.76 231.73C454.6 234.8 420.89 243.9 390.2 259.31C368.76 269.42 348.74 282.43 330.36 297.37C323.91 302.91 317.61 308.63 311.32 314.34C304.99 320.05 299.78 326.82 294.08 333.12C285.7 342.56 278.23 352.77 271.39 363.36C265.3 372.2 260 381.56 255.33 391.22C242.55 415.77 234.26 442.54 229.7 469.8C228.48 478.14 225.9 493.5 225.9 498C225.9 502.5 225.9 518.5 225.9 523.99C225.9 529.479 228.05 545.88 229.22 556.82C234.86 594.82 248.36 631.66 268.79 664.22C278.63 679.95 290.21 694.56 302.54 708.42C309.08 716.21 316.9 722.75 324.39 729.6C338.47 742.17 353.89 753.17 369.94 763.08C376.84 767.4 384.48 770.37 391.45 774.57C395.12 776.7 397.67 780.23 399.47 784.02C399.65 788.07 400.16 792.45 398.08 796.15C394.87 802.06 387.61 806.43 380.87 804.05C370.29 800.46 361.27 793.62 351.39 788.56C335.44 778.57 319.73 767.95 305.91 755.1C298.87 749.17 292.51 742.51 285.95 736.08C274.31 724.59 264.12 711.74 254.4 698.62C235.14 672.04 220.05 642.44 209.87 611.23C202.76 590.14 198.64 568.12 196.05 546.05C194.44 528.42 192.56 511.15 194.5 493.5C195.48 472.8 200.99 452.05 206.3 432.1C217.94 391.95 236.91 353.75 263.29 321.23C269.74 313.41 276.1 305.46 283.47 298.47C288.77 293.46 293.53 287.9 299.08 283.16C329.41 255.61 365.08 233.97 403.4 219.49C413.25 215.71 423.15 211.92 433.46 209.58C454.63 204.36 476.18 200.45 497.96 199.02Z"   fill="#013733" >
</path>
<path d="M527.24 253.27C528.97 252.4 531.19 251.64 532.68 253.39C533.81 260.43 531.76 267.52 531.44 274.57C530.91 281.69 531.02 288.86 531.04 296C531.22 301.65 532.92 307.09 534.52 312.47C540.66 332.02 556.02 348.15 574.67 356.36C588.96 362.9 605.31 363.36 620.56 360.55C637.75 356.68 653.34 347.12 665.75 334.74C668.64 331.93 670.83 328.46 673.86 325.78C675.63 324.2 678.87 325.05 679.5 327.42C682.26 334.97 683.29 343.01 685.2 350.79C692.92 383.76 700.39 416.78 707.01 449.99C708.97 460.13 709.89 470.44 711.32 480.67C712.84 490.39 711.44 500.23 711.92 510.02C712.71 521.9 710.3 533.64 708.43 545.31C704.17 568.07 695.91 590.09 683.95 609.93C676.72 622 667.78 632.94 658.12 643.14C647.27 653.81 635.24 663.22 622.5 671.52C619.72 673.32 616.64 674.72 614.21 677.01C616.63 687.18 615.94 697.63 615.86 707.99C615.53 715.22 614.19 722.5 611.11 729.1C610.2 731.24 609.02 733.33 608.7 735.67C610.03 737.82 611.85 739.6 613.43 741.57C618.88 748.01 622.26 756.03 623.73 764.29C624.92 770.77 623.5 777.35 621.76 783.6C619.82 787.93 618.16 792.47 615.22 796.25C613.68 798.45 611.64 800.44 610.88 803.08C610.39 806.75 611.18 810.44 611.27 814.12C611.54 834.19 601.89 853.09 588.73 867.74C580.9 876.84 570.97 883.96 560.12 889.02C552.26 892.87 543.99 896.02 535.3 897.38C523.46 899.94 511.12 901.5 499.14 898.88C480.28 896.32 462.2 888.53 447.35 876.64C444.41 874.17 441.61 871.52 439.13 868.6C436.64 865.5 434.15 862.41 431.82 859.21C420.69 844.25 414.16 824.94 417.62 806.28C418.47 802.96 415.7 800.52 413.95 798.11C409.86 793.17 407.4 787.17 405.39 781.15C401.8 769.37 404.7 756.31 410.99 745.97C413.21 742.09 416.74 739.25 419.39 735.72C417.97 730.96 415.28 726.65 414.18 721.78C411.31 712.45 411.83 702.61 411.92 692.99C411.94 687.48 413.88 682.27 414.71 676.89C413.13 675.18 411.02 674.13 409.06 672.95C394.21 664.31 380.46 653.84 368.26 641.75C356.44 629.2 346.19 615.21 337.69 600.22C329.18 583.26 322.18 565.49 317.97 546.96C315.9 535.4 314.73 523.71 313.94 512C313.25 498.69 314.79 485.41 316.28 472.21C317.35 462.49 320.17 453.11 322.71 443.7C325.95 432.79 329.8 422.04 334.77 411.79C350.9 378.67 375.08 349.68 404.05 327.04C430.22 306.68 459 290.03 487.95 274C500.93 266.86 513.98 259.86 527.24 253.27ZM485.19 312.04C478.66 315.31 472.95 319.93 466.66 323.61C462.72 326.29 458.15 328.15 454.88 331.7C449.75 334.01 445.34 337.56 440.72 340.71C423.54 352.46 407.09 365.67 393.92 381.9C379.84 397.99 368.15 416.24 359.97 436.02C355.83 447.39 351.89 458.9 349.83 470.85C348.37 479.16 346.73 487.54 346.93 496.01C347.37 504.7 346.42 513.43 347.94 522.05C347.55 529.23 350.09 536.04 350.89 543.1C353.31 554.15 357.22 564.87 361.92 575.15C367.82 589.2 376.62 601.91 386.78 613.22C394.04 620.6 401.21 628.16 409.6 634.28C412.18 637.55 416.1 639.33 419.48 641.63C427.73 647.12 436.64 651.57 445.81 655.32C451.09 657.31 456.12 660.12 461.7 661.23C462.73 655.21 462.17 649.07 462.29 643C462.09 636.71 462.74 630.39 462 624.13C462.7 616.72 461.69 609.24 462.87 601.86C464.4 582.86 468.58 564.07 475.39 546.25C482.21 526.21 493.02 507.66 506.31 491.23C511.74 483.47 518.97 477.28 525.5 470.5C534.54 460.95 545.63 453.7 556.73 446.79C567.35 439.76 579.27 435.11 590.8 429.85C595.8 427.47 601.45 426.63 606.93 427.35C615.59 428.73 621.52 438.98 617.96 447.12C616.74 449.5 614.99 451.63 614.29 454.26C602.46 460.35 589.68 464.47 578.14 471.16C567.93 476.92 558.11 483.49 549.65 491.64C540.77 498.81 533.68 507.83 526.85 516.89C516.02 532.19 507.34 549.14 502.28 567.23C498.58 579.23 497.1 591.72 494.96 604.04C494.73 610.69 495.08 617.34 495.04 623.99C495.26 638.58 494.73 653.2 495.3 667.78C500.17 668.48 505.1 668 510 668.1C514.89 668.02 519.81 668.46 524.68 667.8C525.18 653.55 524.63 639.25 524.9 624.99C525.27 620.33 526.43 615.71 526.01 611.01C525.57 604.72 527.45 598.63 528.52 592.5C530.99 583.52 532.93 574.33 536.88 565.83C542.18 551.62 550.33 538.64 559.97 526.99C568.32 516.85 578.84 508.8 589.85 501.77C593.59 501.9 597.13 500.39 600.84 500.32C606.05 500.93 610.66 504.06 614.03 507.96C617.1 511.28 617.37 516.29 616.33 520.49C614.54 526.15 609.24 529.59 604.16 532.03C597.52 535.01 592.27 540.21 587.25 545.34C577.85 555.59 570.14 567.61 565.7 580.84C560.24 594.9 557.9 610.08 557.93 625.1C557.35 631.05 557.82 637.03 557.71 643C557.83 649.41 557.35 655.84 557.93 662.24C562.2 662.46 566.13 660.54 570.15 659.41C584.52 655.42 598.24 649.12 610.54 640.68C619.03 635.74 626.15 628.92 633.56 622.56C641.21 615.1 648.01 606.76 653.85 597.81C657.4 591.37 661.34 585.14 664.64 578.56C676.11 552.04 680.44 522.75 679.13 493.99C678.1 487.02 678.56 479.93 677.29 472.99C675.4 461.66 673.77 450.27 671.11 439.08C669.9 434.14 669.88 428.87 667.67 424.21C667.91 421.65 666.99 419.15 666.57 416.65C664 405.07 661.87 393.37 658.79 381.91C656.54 381.42 654.4 382.44 652.37 383.24C642.83 387.34 632.93 390.73 622.67 392.47C613.24 394.45 603.54 393.69 593.98 393.68C576.73 391.97 559.54 386.64 545.2 376.72C529.7 365.71 516.13 351.33 508.32 333.83C503.87 324.36 501.36 314.1 500.66 303.68C494.94 305.33 490.44 309.41 485.19 312.04ZM538.97 698.94C532.27 698.6 525.7 700.51 519 700.02C510.53 699.56 501.99 700.8 493.57 699.46C482.87 698.71 472.45 696.11 461.97 694.01C456.68 692.9 451.63 690.62 446.22 690.1C445.71 696.72 446.03 703.37 445.92 710.01C446.05 715.25 445.55 720.52 446.24 725.74C447.47 725.94 448.71 726.07 449.97 726.12C488.98 726.03 527.99 726.15 567 726.07C572.27 725.97 577.58 726.48 582.83 725.82C583.44 713.63 583.04 701.38 583.04 689.17C568.83 694.31 553.92 697.1 538.97 698.94ZM446.39 759.34C442.29 760.3 438.94 763.63 437.35 767.45C435.75 773.29 438.35 780.17 443.52 783.4C446.93 785.6 451.18 784.78 455.02 784.9C493.67 784.85 532.33 784.87 570.99 784.89C575.37 784.74 580.27 785.78 584.15 783.18C587.15 781.08 589.91 777.92 589.97 774.07C590.11 770.43 590.48 766.14 587.74 763.29C585.08 760.25 580.96 758.97 577.02 759.02C534.68 758.99 492.33 759.04 450 758.97C448.78 758.98 447.57 759.1 446.39 759.34ZM450.12 819.27C449.71 823.91 451.58 828.38 453.51 832.51C461.74 848.71 477.41 860.44 494.78 865.24C500.45 866.58 506.26 867.33 512.04 868.02C518.13 868.84 524.03 866.8 530 865.96C537.2 864.93 543.67 861.35 549.98 857.95C563.89 849.73 574.96 835.9 578.09 819.86C576.99 818.8 575.42 818.9 574.03 818.86C537.68 818.98 501.34 818.85 465 818.93C460.04 818.99 455.05 818.66 450.12 819.27Z"   fill="#013733" >
</path>
<path d="M483.12 171.99C498.32 169.92 513.69 170.9 528.97 170.69C537.04 170.5 544.99 171.95 552.98 172.78C596.41 177.69 638.94 190.77 677.44 211.5C708.53 228.37 737.82 249.05 762.45 274.55C781.61 293.12 798.13 314.33 811.96 337.15C831.08 367.63 843.88 401.7 852.61 436.5C856.6 453.39 859.61 470.55 860.55 487.9C861.81 499.23 861.05 510.63 861.31 522C860.4 552.18 856.34 582.41 847.49 611.34C842.88 627.83 836.9 643.94 829.4 659.34C819.75 680.64 807.12 700.48 793.35 719.34C785.03 729.64 776.86 740.08 767.77 749.71C760.72 758.36 751.89 765.22 743.88 772.89C723.86 790.89 701.29 805.78 677.83 818.87C666.99 824.75 655.53 829.35 644.31 834.43C636.55 837.84 628.17 840.17 621.31 845.34C616.12 849.23 612.56 854.84 609.52 860.47C606.75 865.57 605.88 871.38 604.92 877.03C601.84 875.28 599.64 872.05 596.05 871.24C593.48 870.39 590.5 870.02 588.73 867.74C601.89 853.09 611.54 834.19 611.27 814.12C611.18 810.44 610.39 806.75 610.88 803.08C611.64 800.44 613.68 798.45 615.22 796.25C618.16 792.47 619.82 787.93 621.76 783.6C624.08 783.68 626.41 783.79 628.74 783.89C628.23 788.42 628.03 793.41 630.71 797.37C633.74 801.78 638.99 805.78 644.64 804.54C651.82 802.92 658.19 799.03 664.6 795.57C671.77 791.4 678.99 787.31 686.08 783C697.9 775 709.59 766.74 720.39 757.38C729.16 750.56 736.54 742.21 744.49 734.49C754.4 724.99 763.28 714.44 771.28 703.3C782.21 689.45 791.2 674.22 799.72 658.82C813.43 631.83 823.57 602.98 828.99 573.17C830.97 561.15 833.55 549.18 833.95 536.98C834.89 528.34 834.85 519.67 834.73 511C835.34 490.71 832.15 470.54 828.12 450.71C819.78 413.51 805.37 377.52 784.26 345.69C774.57 331.31 764.23 317.31 752.46 304.55C747.04 299.28 742.68 292.98 736.66 288.34C724.14 276.39 710.85 265.17 696.35 255.68C681.09 244.58 664.11 236.18 647.18 227.98C629.41 219.64 610.69 213.43 591.72 208.46C573.02 204.3 554.17 200.59 535.03 199.26C522.71 198.08 510.29 197.81 497.96 199.02C476.18 200.45 454.63 204.36 433.46 209.58C423.15 211.92 413.25 215.71 403.4 219.49C365.08 233.97 329.41 255.61 299.08 283.16C293.53 287.9 288.77 293.46 283.47 298.47C276.1 305.46 269.74 313.41 263.29 321.23C236.91 353.75 217.94 391.95 206.3 432.1C200.99 452.05 196.21 472.29 195.23 492.99C193.29 510.64 194.44 528.42 196.05 546.05C198.64 568.12 202.76 590.14 209.87 611.23C220.05 642.44 235.14 672.04 254.4 698.62C264.12 711.74 274.31 724.59 285.95 736.08C292.51 742.51 298.87 749.17 305.91 755.1C319.73 767.95 335.44 778.57 351.39 788.56C361.27 793.62 370.29 800.46 380.87 804.05C387.61 806.43 394.87 802.06 398.08 796.15C400.16 792.45 399.65 788.07 399.47 784.02C401.08 783.8 402.71 783.66 404.26 783.16C404.55 782.66 405.11 781.65 405.39 781.15C407.4 787.17 409.86 793.17 413.95 798.11C415.7 800.52 418.47 802.96 417.62 806.28C414.16 824.94 420.69 844.25 431.82 859.21C434.15 862.41 436.64 865.5 439.13 868.6C434.09 871.87 428.78 874.84 423.07 876.77C422.28 862.77 414.57 848.84 402.11 842.01C396.44 839.17 390.57 836.77 384.68 834.47C376.31 831.51 368.68 826.92 360.49 823.55C335.08 810.75 310.94 795.23 289.45 776.55C282.03 770.68 275.79 763.54 268.99 757C249.63 738.33 233.18 716.83 218.8 694.15C210.8 681.09 203.39 667.63 197.43 653.51C189.89 637.05 183.88 619.89 179.51 602.32C173.68 581.34 170.24 559.73 168.84 538.01C166.86 517.72 167.42 497.25 169.8 477.02C173.57 442.24 182.62 407.97 196.76 375.96C202.27 361.86 210.21 348.92 217.8 335.88C229.49 317.64 242.39 300.08 257.4 284.41C263.89 276.59 271.22 269.53 278.95 262.93C300.21 243.18 323.98 226.14 349.64 212.56C390.62 189.75 436.59 176.79 483.12 171.99Z"   fill="#74D06A" >
</path>
<path d="M605.23 262.98C607.88 262.11 611.37 262.68 612.65 265.46C616.1 271.77 617.12 279.42 622.17 284.84C627.22 289.54 634.87 289.45 640.2 293.72C643.04 295.82 643.48 301.35 639.86 302.91C634.63 305.66 628.53 306.42 623.51 309.58C617.61 314.45 616.08 322.28 612.89 328.85C611.38 332.79 604.88 334.14 602.8 330.09C599.36 324.07 598.71 316.48 593.51 311.49C588.51 306.12 580.17 306.88 574.74 302.26C572.09 300.12 572.04 295.8 574.55 293.56C580.61 289.54 588.91 289.59 594.02 284.02C597.93 278.97 599.1 272.48 601.78 266.8C602.53 265.23 603.69 263.82 605.23 262.98Z"   fill="#74D06A" >
</path>
<path d="M485.19 312.04C490.44 309.41 494.94 305.33 500.66 303.68C501.36 314.1 503.87 324.36 508.32 333.83C516.13 351.33 529.7 365.71 545.2 376.72C559.54 386.64 576.73 391.97 593.98 393.68C603.54 393.69 613.24 394.45 622.67 392.47C632.93 390.73 642.83 387.34 652.37 383.24C654.4 382.44 656.54 381.42 658.79 381.91C661.87 393.37 664 405.07 666.57 416.65C666.99 419.15 667.91 421.65 667.67 424.21C666.8 425.05 665.33 425.63 665.39 427.06C665.23 436.14 668.28 444.9 668.71 453.94C669.15 467.26 669.23 480.65 667.43 493.88C664.73 510.82 660.42 527.63 653.1 543.2C649.19 551.57 644.11 559.33 638.84 566.9C633.69 574.57 627.14 581.14 620.94 587.95C609.54 599.2 596.31 608.58 582.14 616.01C574.31 619.61 566.49 623.57 557.93 625.1C557.9 610.08 560.24 594.9 565.7 580.84C570.14 567.61 577.85 555.59 587.25 545.34C592.27 540.21 597.52 535.01 604.16 532.03C609.24 529.59 614.54 526.15 616.33 520.49C617.37 516.29 617.1 511.28 614.03 507.96C610.66 504.06 606.05 500.93 600.84 500.32C597.13 500.39 593.59 501.9 589.85 501.77C595.95 496.53 603.25 493.07 610.18 489.1C616.33 485.67 623.21 483.28 628.45 478.4C633.67 473.72 634.41 464.68 629.47 459.52C625.68 455.26 619.61 454.71 614.29 454.26C614.99 451.63 616.74 449.5 617.96 447.12C621.52 438.98 615.59 428.73 606.93 427.35C601.45 426.63 595.8 427.47 590.8 429.85C579.27 435.11 567.35 439.76 556.73 446.79C545.63 453.7 534.54 460.95 525.5 470.5C518.97 477.28 511.74 483.47 506.31 491.23C493.02 507.66 482.21 526.21 475.39 546.25C468.58 564.07 464.4 582.86 462.87 601.86C461.69 609.24 462.7 616.72 462 624.13C446.91 618.63 433.02 610.28 420.03 600.91C393.43 580.58 373.52 551.29 365.49 518.71C363.19 511.54 363.1 503.95 361.43 496.66C360.34 505.23 361.25 513.88 360.46 522.46C358.93 510.7 359.62 498.77 360.81 487.01C362.5 466.96 367.63 447.22 375.72 428.8C380.79 418.65 385.41 408.23 391.78 398.8C401.37 385.23 411.74 372.21 423.04 360.03C427.72 355.36 432.75 351.05 437.65 346.61C443.3 341.53 450.09 337.71 454.88 331.7C458.15 328.15 462.72 326.29 466.66 323.61C472.95 319.93 478.66 315.31 485.19 312.04Z"   fill="#74D06A" >
</path>
<path d="M665.39 427.06C665.33 425.63 666.8 425.05 667.67 424.21C669.88 428.87 669.9 434.14 671.11 439.08C673.77 450.27 675.4 461.66 677.29 472.99C678.56 479.93 678.1 487.02 679.13 493.99C680.44 522.75 676.11 552.04 664.64 578.56C661.34 585.14 657.4 591.37 653.85 597.81C648.01 606.76 641.21 615.1 633.56 622.56C626.15 628.92 619.03 635.74 610.54 640.68C598.24 649.12 584.52 655.42 570.15 659.41C566.13 660.54 562.2 662.46 557.93 662.24C557.35 655.84 557.83 649.41 557.71 643C557.82 637.03 557.35 631.05 557.93 625.1C566.49 623.57 574.31 619.61 582.14 616.01C596.31 608.58 609.54 599.2 620.94 587.95C627.14 581.14 633.69 574.57 638.84 566.9C644.11 559.33 649.19 551.57 653.1 543.2C660.42 527.63 664.73 510.82 667.43 493.88C669.23 480.65 669.15 467.26 668.71 453.94C668.28 444.9 665.23 436.14 665.39 427.06Z"   fill="#38B853" >
</path>
<path d="M361.43 496.66C363.1 503.95 363.19 511.54 365.49 518.71C373.52 551.29 393.43 580.58 420.03 600.91C433.02 610.28 446.91 618.63 462 624.13C462.74 630.39 462.09 636.71 462.29 643C462.17 649.07 462.73 655.21 461.7 661.23C456.12 660.12 451.09 657.31 445.81 655.32C436.64 651.57 427.73 647.12 419.48 641.63C416.1 639.33 412.18 637.55 409.6 634.28C407.23 630.76 404.46 627.53 401.49 624.51C395.44 618.3 390.69 610.98 386.35 603.51C370.98 579.31 362.01 551.08 360.46 522.46C361.25 513.88 360.34 505.23 361.43 496.66Z"   fill="#38B853" >
</path>
</svg>
