<svg xmlns="http://www.w3.org/2000/svg" xmlns:xlink="http://www.w3.org/1999/xlink" width="1024" height="1024" viewBox="0 0 1024 1024" fill="none">
<path     fill="#FFFFFF"  d="M0 1024L1024 1024L1024 0L0 0L0 1024Z">
</path>
<path d="M363.689 233.159C373.212 226.666 382.303 219.349 392.877 214.587C383.004 226.975 369.007 234.85 357.361 245.321C347.261 254.473 336.893 263.358 327.247 272.984C303.955 298.091 282.58 324.929 262.812 352.901C249.682 372.339 240.159 393.818 229.709 414.741C213.033 452.71 202.459 493.401 198.976 534.73C196.523 558.971 195.1 583.562 198.254 607.804C201.449 666.798 219.939 724.989 251.62 774.873C260.565 790.271 270.356 805.36 282.827 818.161C288.949 824.386 294.659 831.044 299.544 838.3C282.25 825.685 267.471 810.101 252.506 794.889C231.564 771.575 213.425 745.376 201.264 716.414C191.576 695.224 183.516 673.127 178.528 650.349C176.879 635.796 171.644 621.759 172.447 606.958C169.314 589.19 171.273 571.195 170.366 553.282C169.953 535.822 173.334 518.549 176.343 501.419C180.589 476.786 188.711 453.061 197.244 429.623C214.105 388.851 238.201 351.232 267.223 318.065C294.37 284.61 328.277 257.38 363.689 233.159Z"   fill="#FEFFF8" >
</path>
<path d="M721.456 467.223C732.422 468.15 744.933 469.284 752.745 478.065C762.928 488.702 761.402 507.336 750.643 516.983C739.842 527.042 725.661 531.969 712.984 539.039C698.7 547.222 683.653 554.355 671.079 565.156C648.385 579.647 626.701 596.241 609.489 617.142C589.619 641.157 572.82 667.913 561.896 697.204C553.754 714.725 549.755 733.669 544.664 752.179C542.458 764.815 538.583 777.369 539.49 790.334C540.356 800.023 537.965 809.546 537.202 819.152C536.646 848.546 537.779 878.023 536.749 907.397C526.71 908.757 516.569 907.85 506.49 908.015C496.39 907.809 486.228 908.798 476.19 907.355C475.015 877.301 476.107 847.165 475.654 817.09C475.736 803.383 475.015 789.675 475.489 775.967C479.9 750.572 482.95 724.826 490.577 700.09C501.007 662.801 518.898 627.861 541.221 596.323C555.3 577.648 569.914 559.054 588.218 544.275C605.656 527.475 625.897 513.932 646.942 502.059C670.729 488.269 697.071 479.776 721.456 467.223Z"   fill="#FEFFF8" >
</path>
<path d="M553.23 53.1936C550.159 49.5862 545.586 51.1502 542.02 52.9436C514.688 66.5276 487.795 80.9555 461.04 95.6735C401.367 128.716 342.033 163.045 288.09 205.014C228.376 251.682 178.538 311.433 145.29 379.704C135.046 400.832 127.118 422.995 120.44 445.484C115.205 464.881 109.396 484.207 107.19 504.244C104.119 531.453 100.938 558.837 102.36 586.273C103.988 610.412 106.393 634.515 110.66 658.344C119.338 696.54 133.779 733.154 151.32 768.113C168.841 799.013 189.966 827.854 214.33 853.724C239.477 878.645 298.42 918.044 298.42 918.044C298.42 918.044 327.238 932.222 349.9 941.284C372.562 950.345 407.49 961.443 407.49 961.443C407.49 961.443 450.565 971.138 472.62 972.683C494.675 974.229 506.48 973.844 525.04 973.844C544.694 973.844 552.475 973.303 566.2 971.613C597.015 967.821 627.75 962.059 657.04 951.464C657.04 951.464 691.758 939.381 698.01 936.503C711.906 930.109 732.64 918.804 738.37 915.094C764.63 897.985 789.426 878.598 811.79 856.604C831.701 835.578 850.137 813.004 865.04 788.123C889.692 747.227 906.709 701.849 915.49 654.933C919.344 630.878 922.7 605.384 922.7 582.193C922.7 559.003 922.7 544.294 921.46 521.684C920.22 499.074 916.61 479.355 912.57 458.454C898.924 389.997 883.523 321.926 867.61 253.964C863.673 237.926 861.559 221.346 855.87 205.784C854.571 200.898 847.888 199.157 844.24 202.414C837.994 207.938 833.477 215.091 827.52 220.884C801.94 246.403 769.813 266.106 734.38 274.084C702.946 279.876 669.245 278.935 639.79 265.454C601.348 248.529 569.686 215.272 557.03 174.974C553.732 163.884 550.221 152.68 549.85 141.034C549.809 126.316 549.598 111.53 550.69 96.8535C551.35 82.321 555.559 67.7052 553.23 53.1936ZM487.24 156.854C475.45 160.255 466.171 168.662 455.35 174.084C441.89 180.824 430.105 190.348 417.14 197.934C409.019 203.458 399.62 207.306 392.88 214.624C382.306 219.385 373.203 226.691 363.68 233.184C328.268 257.405 294.356 284.628 267.21 318.084C238.188 351.25 214.091 388.881 197.23 429.654C188.696 453.091 180.586 476.821 176.34 501.454C173.331 518.583 169.948 535.844 170.36 553.304C171.267 571.216 169.317 589.225 172.45 606.993C171.646 621.794 176.871 635.831 178.52 650.383C183.508 673.161 191.562 695.253 201.25 716.443C213.411 745.405 231.568 771.61 252.51 794.923C267.475 810.136 282.246 825.718 299.54 838.333C304.858 845.074 312.933 848.732 319.9 853.474C336.905 864.79 355.278 873.964 374.18 881.693C385.063 885.796 395.428 891.595 406.93 893.883C409.053 881.474 407.903 868.816 408.15 856.303C407.738 843.338 409.075 830.317 407.55 817.414C408.993 802.139 406.908 786.706 409.34 771.493C412.494 732.328 421.113 693.596 435.15 656.863C449.208 615.555 471.486 577.331 498.88 543.464C510.072 527.468 524.98 514.709 538.44 500.734C557.074 481.048 579.92 466.087 602.8 451.844C624.69 437.352 649.274 427.766 673.04 416.924C683.346 412.018 694.984 410.299 706.28 411.784C724.13 414.628 736.348 435.754 729.01 452.534C726.495 457.439 722.893 461.832 721.45 467.254C697.065 479.807 670.737 488.293 646.95 502.084C625.905 513.957 605.658 527.494 588.22 544.294C569.916 559.073 555.298 577.678 541.22 596.354C518.897 627.892 501.01 662.824 490.58 700.113C482.953 724.849 475.48 746.486 475.48 775.993C475.48 805.501 475.732 803.406 475.65 817.113C476.103 847.188 475.005 877.329 476.18 907.383C486.218 908.826 496.38 907.837 506.48 908.044C516.559 907.879 526.712 908.794 536.75 907.433C537.781 878.06 536.643 848.578 537.2 819.183C537.963 809.578 538.029 805.173 539.01 793.013C540.055 780.058 542.454 764.839 544.66 752.203C549.751 733.693 553.758 714.755 561.9 697.233C572.824 667.942 589.62 641.178 609.49 617.164C626.701 596.262 648.376 579.675 671.07 565.183C678.779 565.451 686.083 562.328 693.73 562.184C704.469 563.441 713.964 569.904 720.91 577.943C727.238 584.787 727.804 595.116 725.66 603.773C721.97 615.441 711.041 622.524 700.57 627.553C686.883 633.696 676.067 644.419 665.72 654.993C646.344 676.122 630.452 700.902 621.3 728.173C610.046 757.156 605.218 788.442 605.28 819.404C604.084 831.668 605.057 843.997 604.83 856.303C605.077 869.517 604.084 882.761 605.28 895.953C614.081 896.407 622.174 892.463 630.46 890.133C660.08 881.909 688.367 868.911 713.72 851.513C731.22 841.331 745.906 827.273 761.18 814.164C776.948 798.786 790.962 781.612 803 763.164C810.317 749.889 818.438 737.037 825.24 723.474C848.882 668.807 857.8 608.427 855.1 549.144C852.977 534.776 853.938 520.169 851.32 505.864C847.424 482.509 844.053 459.03 838.57 435.964C836.076 425.781 836.025 414.919 831.47 405.314C831.965 400.037 830.076 394.887 829.21 389.734C823.913 365.863 819.519 341.746 813.17 318.124C808.532 317.113 804.124 319.204 799.94 320.854C780.276 329.305 759.878 336.297 738.73 339.884C719.292 343.965 699.285 342.384 679.58 342.384C644.024 338.859 608.598 327.862 579.04 307.414C547.091 284.718 519.128 255.067 503.03 218.994C493.857 199.473 488.683 178.333 487.24 156.854Z" fill-rule="evenodd"  fill="#013733" >
</path>
<path d="M702.784 72.933C708.247 71.1396 715.44 72.3145 718.079 78.045C725.19 91.0519 727.292 106.821 737.702 117.993C748.111 127.681 763.879 127.496 774.866 136.298C780.72 140.627 781.627 152.026 774.165 155.241C763.385 160.91 750.811 162.476 740.464 168.99C728.302 179.029 725.149 195.169 718.573 208.712C715.461 216.833 702.063 219.616 697.776 211.268C690.685 198.859 689.345 183.213 678.627 172.927C668.32 161.858 651.13 163.425 639.937 153.901C634.475 149.49 634.372 140.585 639.546 135.968C652.037 127.681 669.145 127.785 679.678 116.303C687.737 105.893 690.149 92.5155 695.673 80.8072C697.219 77.5709 699.61 74.6645 702.784 72.933Z"   fill="#74D06A" >
</path>
<path d="M455.351 174.061C466.172 168.64 475.448 160.23 487.238 156.829C488.681 178.308 493.855 199.457 503.027 218.978C519.125 255.051 547.096 284.692 579.046 307.388C608.604 327.836 644.036 338.823 679.593 342.347C699.298 342.368 719.292 343.935 738.73 339.853C759.878 336.267 780.284 329.279 799.948 320.827C804.133 319.178 808.544 317.076 813.182 318.086C819.53 341.708 823.921 365.826 829.218 389.696C830.084 394.849 831.98 400.003 831.485 405.28C829.692 407.011 826.662 408.207 826.786 411.154C826.456 429.871 832.743 447.928 833.629 466.563C834.536 494.019 834.701 521.62 830.991 548.892C825.425 583.81 816.541 618.461 801.453 650.556C793.394 667.809 782.923 683.805 772.06 699.409C761.444 715.219 747.943 728.762 735.164 742.8C711.666 765.99 684.395 785.325 655.188 800.641C639.048 808.061 622.929 816.224 605.285 819.378C605.223 788.417 610.047 757.126 621.301 728.144C630.453 700.873 646.345 676.096 665.721 654.967C676.068 644.393 686.89 633.674 700.576 627.531C711.047 622.501 721.972 615.41 725.661 603.743C727.805 595.086 727.249 584.759 720.921 577.915C713.974 569.876 704.472 563.424 693.733 562.167C686.086 562.311 678.789 565.423 671.08 565.155C683.653 554.354 698.7 547.222 712.985 539.039C725.661 531.968 739.843 527.042 750.644 516.982C761.403 507.335 762.929 488.701 752.746 478.065C744.934 469.284 732.422 468.15 721.456 467.222C722.899 461.801 726.506 457.41 729.021 452.504C736.359 435.725 724.136 414.597 706.286 411.752C694.99 410.268 683.344 411.999 673.038 416.905C649.272 427.748 624.702 437.333 602.812 451.824C579.932 466.068 557.073 481.012 538.439 500.698C524.979 514.674 510.077 527.433 498.884 543.429C471.49 577.297 449.208 615.534 435.151 656.843C421.114 693.576 412.498 732.308 409.344 771.473C406.912 786.685 408.994 802.104 407.551 817.378C376.446 806.041 347.816 788.829 321.041 769.515C266.212 727.608 225.172 667.232 208.621 600.074C203.88 585.295 203.694 569.649 200.252 554.622C198.005 572.288 199.881 590.118 198.253 607.804C195.099 583.563 196.521 558.971 198.974 534.73C202.458 493.401 213.032 452.71 229.707 414.741C240.158 393.819 249.68 372.34 262.811 352.901C282.578 324.929 303.953 298.091 327.245 272.984C336.891 263.358 347.259 254.473 357.359 245.321C369.005 234.85 383.001 226.975 392.875 214.587C399.615 207.269 409.035 203.435 417.156 197.911C430.121 190.325 441.891 180.802 455.351 174.061Z"   fill="#74D06A" >
</path>
<path d="M826.788 411.154C826.664 408.207 829.694 407.011 831.488 405.28C836.043 414.885 836.084 425.748 838.578 435.931C844.061 458.997 847.421 482.476 851.317 505.831C853.935 520.136 852.986 534.751 855.109 549.118C857.81 608.402 848.885 668.778 825.242 723.444C818.44 737.007 810.32 749.849 803.002 763.124C790.964 781.573 776.948 798.764 761.18 814.142C745.906 827.251 731.23 841.31 713.73 851.493C688.377 868.89 660.097 881.876 630.477 890.101C622.19 892.43 614.09 896.388 605.288 895.935C604.093 882.742 605.082 869.488 604.835 856.275C605.062 843.969 604.093 831.642 605.288 819.377C622.932 816.223 639.051 808.061 655.191 800.64C684.398 785.324 711.669 765.989 735.167 742.799C747.946 728.762 761.448 715.219 772.063 699.409C782.926 683.805 793.397 667.809 801.456 650.556C816.544 618.461 825.428 583.81 830.993 548.891C834.703 521.62 834.538 494.019 833.631 466.562C832.745 447.928 826.458 429.871 826.788 411.154Z"   fill="#38B853" >
</path>
<path d="M200.255 554.623C203.697 569.65 203.883 585.295 208.624 600.075C225.175 667.232 266.215 727.608 321.044 769.515C347.819 788.829 376.45 806.041 407.554 817.379C409.079 830.282 407.739 843.31 408.152 856.276C407.904 868.788 409.058 881.444 406.935 893.854C395.434 891.565 385.066 885.773 374.182 881.671C355.281 873.941 336.915 864.768 319.91 853.452C312.943 848.711 304.863 845.042 299.545 838.301C294.66 831.045 288.95 824.387 282.828 818.162C270.358 805.361 260.567 790.272 251.621 774.874C219.94 724.99 201.451 666.799 198.256 607.805C199.884 590.118 198.008 572.288 200.255 554.623Z"   fill="#38B853" >
</path>
</svg>
